<?xml version="1.0" encoding="utf-8"?>
<!-- Generator: Adobe Illustrator 21.1.0, SVG Export Plug-In . SVG Version: 6.00 Build 0)  -->
<svg version="1.1" id="Layer_1" xmlns="http://www.w3.org/2000/svg" xmlns:xlink="http://www.w3.org/1999/xlink" x="0px" y="0px"
	 viewBox="0 0 180 40" style="enable-background:new 0 0 180 40;" xml:space="preserve">
<style type="text/css">
	.st0{fill:none;}
</style>
<title>justinjaywang</title>
<g>
	<g>
		<rect x="11.3" y="9.8" transform="matrix(0.2079 -0.9781 0.9781 0.2079 -0.8443 20.6165)" width="2" height="2"/>
		<rect x="52.3" y="9.8" transform="matrix(0.2079 -0.9781 0.9781 0.2079 31.6451 60.6437)" width="2" height="2"/>
		<rect x="75.6" y="9.9" transform="matrix(0.2079 -0.9781 0.9781 0.2079 50.0663 83.5896)" width="2" height="2"/>
		<path d="M178.6,14.5l-8,7.7l1.5-7l-0.8-0.4h-7.9l-0.5,0.2l-8.1,7.8l1.6-7.6l-1.3-0.7l-8.1,8.2l1.6-7.5l-1.3-0.7l-8.1,8.2l1.6-7.5
			l-0.8-0.4h-7.8l-1.7-0.5l-0.7,0.2l-8.1,8.2l1.6-7.5l-1.3-0.7l-8.1,8.2l1.6-7.5l-1.3-0.7l-8,7.7l1.5-7l-1.3-0.7l-8.1,8.2l1.6-7.5
			l-1.3-0.7l-8.1,8.2l1.6-7.5l-0.8-0.4h-7.9L83,15l-8,7.5l1.5-7.2l-1.3-0.7l-8.1,8.2l1.6-7.5l-1.3-0.7l-8.1,8.2l1.6-7.5l-1.3-0.7
			l-8.1,8.2l1.6-7.5l-1.3-0.7l-8.1,8.2l1.9-8.9H48v-1.5h-2.1l0.7-3.1L45.1,9l-0.7,3.4h-3.9v1.5h3.6l-0.2,0.9l-8,8l1.6-7.5l-1.2-0.7
			l-10.2,8.6l1.7-7.9l-1.3-0.7l-8.1,8.2l1.6-7.5l-1.3-0.7l-8,7.7l1.5-7L10.7,15l-2,9l-8.4,8v1.1L6,38.6l1.3-0.4l2.9-13.4l7.9-7.5
			l-1.6,7.6l1.3,0.7l8.1-8.2l-1.6,7.5l1.2,0.7l4.8-4.1l3.9,4h1.1l8.1-8.2l-1.6,7.5l1.3,0.7l8.1-8.2l-1.6,7.5l1.3,0.7l8.1-8.2
			l-1.6,7.5l1.3,0.7l8.1-8.2l-1.6,7.5l1.3,0.7l8.1-8.2L73,24.2L64.7,32v1.1l5.6,5.5l1.3-0.4L74.4,25l7.8-7.3l-1.5,7.2l1.3,0.7
			l8.1-8.2l-1.6,7.5l1.3,0.7l8.1-8.2l-1.6,7.5l1.3,0.7l8.1-8.2l-1.4,6.6l-8.4,8v1.1l5.6,5.5l1.3-0.4l2.9-13.4l7.9-7.5l-1.6,7.6
			l1.3,0.7l8.1-8.2l-1.6,7.5l1.3,0.7l9.6-9.7l0.7,0.2l-1.9,8.8l1.3,0.7l8.1-8.2l-1.6,7.5l1.3,0.7l8.1-8.2l-1.6,7.5l1.3,0.7l8.1-8.2
			l-1.6,7.5l1.3,0.7l8.1-7.8l-1.5,7.1l1.3,0.7l8.1-8.2l-1.4,6.6l-8.4,8v1.1l5.6,5.5l1.3-0.4l2.9-13.4l9.6-9.2L178.6,14.5z M6.1,36.6
			l-4.1-4l6.2-5.9L6.1,36.6z M34.2,23.5l-2.9-2.9l4.2-3.6L34.2,23.5z M70.4,36.6l-4.1-4l6.2-5.8L70.4,36.6z M82.7,22.7l1.4-6.4h5
			L82.7,22.7z M101.6,36.6l-4.1-4l6.2-5.9L101.6,36.6z M131.5,22.7l1.4-6.4h5L131.5,22.7z M162.7,22.7l1.4-6.4h5L162.7,22.7z
			 M166,36.6l-4.1-4l6.2-5.9L166,36.6z"/>
	</g>
	<rect class="st0" width="180" height="40"/>
</g>
</svg>
